<?xml version="1.0" encoding="UTF-8" standalone="no"?>
<!DOCTYPE svg PUBLIC "-//W3C//DTD SVG 1.1//EN" "http://www.w3.org/Graphics/SVG/1.1/DTD/svg11.dtd">
<svg width="100%" height="100%" viewBox="0 0 800 800" version="1.1" xmlns="http://www.w3.org/2000/svg" xmlns:xlink="http://www.w3.org/1999/xlink" xml:space="preserve" xmlns:serif="http://www.serif.com/" style="fill-rule:evenodd;clip-rule:evenodd;stroke-linejoin:round;stroke-miterlimit:2;">
    <g transform="matrix(8.10654,0,0,8.10654,-1580.25,-4647.66)">
        <path d="M200.441,649.273L200.441,671.392L236.024,671.392C245.968,671.392 254.78,669.498 262.462,665.712L225.605,623.467L200.441,649.273Z" style="fill:rgb(48,169,207);fill-rule:nonzero;"/>
    </g>
    <g transform="matrix(8.10654,0,0,8.10654,-1580.25,-4647.66)">
        <path d="M231.055,617.537L269.134,661.75C274.332,658.067 278.522,653.481 281.704,647.99C285.979,640.617 288.116,632.176 288.116,622.666C288.116,613.155 285.979,604.714 281.704,597.341C277.895,590.77 272.643,585.493 265.948,581.511L231.055,617.537Z" style="fill:rgb(48,169,207);fill-rule:nonzero;"/>
    </g>
    <g transform="matrix(8.10654,0,0,8.10654,-1580.25,-4647.66)">
        <path d="M236.024,573.94L200.441,573.94L200.441,638.694L259.224,578.162C252.332,575.347 244.599,573.94 236.024,573.94Z" style="fill:rgb(48,169,207);fill-rule:nonzero;"/>
    </g>
</svg>
