<?xml version="1.0" encoding="utf-8"?>
<!-- Generator: Adobe Illustrator 23.0.3, SVG Export Plug-In . SVG Version: 6.00 Build 0)  -->
<svg version="1.1" id="Calque_1" xmlns="http://www.w3.org/2000/svg" xmlns:xlink="http://www.w3.org/1999/xlink" x="0px" y="0px"
	 viewBox="0 0 204 136" style="enable-background:new 0 0 204 136;" xml:space="preserve">
<style type="text/css">
	.st0{fill:#FFFFFF;}
	.st1{fill:none;stroke:#006A87;stroke-width:2;}
	.st2{fill:#E58641;}
	.st3{fill:#006A87;}
</style>
<path class="st0" d="M64.9,134.1c51.1,2.7,109.2-24.7,129.7-61.2c20.5-36.5-4.3-68.3-55.4-71C88-0.8,30,26.6,9.5,63.1
	C-11,99.6,13.8,131.4,64.9,134.1z"/>
<path class="st1" d="M9.2,63c-8.6,15.3-9.5,30.7-2.6,43.2c9.1,16.4,30.3,26.7,58.3,28.2l0,0c51.1,2.7,109.4-24.8,129.9-61.4
	c8.6-15.3,9.5-30.7,2.6-43.2c-9.1-16.5-30.3-26.7-58.3-28.2C88-1.1,29.7,26.5,9.2,63z M9.7,63.3 M64.9,133.8"/>
<path class="st2" d="M123.2,9.9c0.2,0.1,19.4,13.2,24.6,46.5c4.8,30.6-7.8,48.1-7.9,48.3l0,0c0.1-0.2,8.9-21.3,3.3-49.9
	C137.1,23.2,123.3,10,123.2,9.9L123.2,9.9z"/>
<g>
	<path class="st3" d="M113.7,90.4c0.1-5.3,3.6-8.5,9.3-8.4c3.9,0,6.9,1.3,6.9,1.3l0-2.4c0,0-4-1.1-7.9-1.2
		c-9.5-0.1-13,5.7-13.1,10.7v0c-0.1,5,3.3,10.9,12.8,11c3.9,0,7.9-1,7.9-1l0-2.4c0,0-3,1.1-6.9,1.1C117,99.1,113.6,95.8,113.7,90.4
		L113.7,90.4z"/>
	<path class="st3" d="M116.9,45.2c-29.6,6.8-44.4,21.3-49.2,27l0,0c0,0-1.4,1.6-2.5,3.2c1.1,0.1,2.3,0.1,2.3,0.1
		C74.1,76,79.2,81,79.1,87.3c-0.1,6.4-5.4,11-12.7,10.9c-1.1,0-2.5-0.1-4-0.4l0.2-18.4l-4.1,0l-0.4,28.4l4.1,0.1l0.1-7.5
		c1.3,0.3,2.6,0.5,4,0.5c9.5,0.1,17-5.8,17.1-13.5c0.1-7.3-6.4-13.2-15.1-14c4.9-4.6,20.6-17.5,50.1-23.9
		c39.2-8.5,65.3,3.4,65.6,3.6C183.8,52.9,158.2,35.8,116.9,45.2z"/>
	<path class="st3" d="M96.9,79.4c-7.6-0.1-11.7,5.3-11.8,10.7c-0.1,5,3.2,10.9,12.8,11c4.8,0,9-1,9-1l0-2.4c0,0-3.5,1.2-7.6,1.1
		c-5.9-0.1-9.1-3-9.5-8.4l17.2,0.2C107,90.7,108.2,79.5,96.9,79.4z M96.5,81.7c1.8,0,3.2,0.5,4.2,1.5c1,1.1,1.6,2.8,1.6,5.1L90,88.2
		C90.5,85,92.1,81.6,96.5,81.7z"/>
	<path class="st3" d="M42.5,71.4l-4.7-0.1l-15,28.3l3.7,0l4.4-8.2l17,0.2L52,100l4.7,0.1L42.5,71.4z M39.5,75l7.1,14.1l-14.4-0.2
		L39.5,75z"/>
</g>
</svg>
